<svg id="backward-arrow" xmlns="http://www.w3.org/2000/svg" viewBox="0 0 31.4 29.623">
  <defs>
    <style>
      .cls-1 {
        fill: #3a3e43;
      }
    </style>
  </defs>
  <path id="Tracé_180" data-name="Tracé 180" class="cls-1" d="M46.2,28.125a.919.919,0,0,0,.3,1.279,1.314,1.314,0,0,0,.745.219,1.364,1.364,0,0,0,.806-.252,64.394,64.394,0,0,0,6.951-6.092c4.594-4.729,6.045-8.313,4.272-10.686-1.552-2.087-4.473-3.551-8.684-4.375A35.979,35.979,0,0,0,44.934,7.6V1.016a1.025,1.025,0,0,0-.766-.942,1.385,1.385,0,0,0-1.33.236L28.956,12.425a1.017,1.017,0,0,0-.343.757.9.9,0,0,0,.423.724l13.721,9.76a1.417,1.417,0,0,0,1.249.168,1.074,1.074,0,0,0,.745-.858l.484-6.092c.524-.05,1.249-.1,1.995-.1.967,0,3.264.1,3.466,1.094.1.454.081,1.918-2.015,5.957C47.513,26.106,46.223,28.108,46.2,28.125Zm1.068-13.378A25.791,25.791,0,0,0,43.906,15a1.083,1.083,0,0,0-.967.925l-.4,4.9L31.615,13.064,42.536,3.54V8.588a.907.907,0,0,0,.363.724,1.319,1.319,0,0,0,.866.286h.121c1.068,0,10.417.118,13.359,4.072,1.108,1.5-.343,4.459-4.09,8.33-.584.606-1.169,1.178-1.773,1.716,1.431-2.894,1.995-4.93,1.733-6.209C52.852,16.245,51.623,14.747,47.271,14.747Z" transform="translate(-28.613 0)"/>
</svg>
